<mxfile host="Electron" agent="Mozilla/5.0 (Macintosh; Intel Mac OS X 10_15_7) AppleWebKit/537.36 (KHTML, like Gecko) draw.io/26.0.4 Chrome/128.0.6613.186 Electron/32.2.5 Safari/537.36" version="26.0.4">
  <diagram id="pzp2v1ahhBAfOaCNUCo-" name="ontology">
    <mxGraphModel dx="545" dy="354" grid="1" gridSize="10" guides="1" tooltips="1" connect="1" arrows="1" fold="1" page="1" pageScale="1" pageWidth="850" pageHeight="1100" math="0" shadow="0">
      <root>
        <mxCell id="0" />
        <mxCell id="1" parent="0" />
        <mxCell id="B6bujYKnu-jf7jByS25X-4" value="ys:endpoint" style="rounded=0;orthogonalLoop=1;jettySize=auto;html=1;entryX=0;entryY=0.5;entryDx=0;entryDy=0;fontSize=13;spacing=0;" parent="1" source="B6bujYKnu-jf7jByS25X-1" target="B6bujYKnu-jf7jByS25X-3" edge="1">
          <mxGeometry x="0.3592" y="3" relative="1" as="geometry">
            <mxPoint as="offset" />
          </mxGeometry>
        </mxCell>
        <mxCell id="B6bujYKnu-jf7jByS25X-11" value="ys:hostKeyVerification" style="edgeStyle=orthogonalEdgeStyle;rounded=0;orthogonalLoop=1;jettySize=auto;html=1;entryX=0;entryY=0.5;entryDx=0;entryDy=0;fontSize=13;spacing=0;" parent="1" source="B6bujYKnu-jf7jByS25X-1" target="B6bujYKnu-jf7jByS25X-10" edge="1">
          <mxGeometry x="0.3146" relative="1" as="geometry">
            <Array as="points">
              <mxPoint x="940" y="370" />
              <mxPoint x="940" y="425" />
            </Array>
            <mxPoint as="offset" />
          </mxGeometry>
        </mxCell>
        <mxCell id="B6bujYKnu-jf7jByS25X-16" value="ys:datastore" style="edgeStyle=orthogonalEdgeStyle;rounded=0;orthogonalLoop=1;jettySize=auto;html=1;entryX=1;entryY=0.5;entryDx=0;entryDy=0;fontSize=13;spacing=0;" parent="1" source="B6bujYKnu-jf7jByS25X-1" target="B6bujYKnu-jf7jByS25X-14" edge="1">
          <mxGeometry relative="1" as="geometry" />
        </mxCell>
        <mxCell id="B6bujYKnu-jf7jByS25X-17" value="ys:datastore" style="edgeStyle=orthogonalEdgeStyle;rounded=0;orthogonalLoop=1;jettySize=auto;html=1;entryX=1;entryY=0.5;entryDx=0;entryDy=0;fontSize=13;spacing=0;" parent="1" source="B6bujYKnu-jf7jByS25X-1" target="B6bujYKnu-jf7jByS25X-12" edge="1">
          <mxGeometry relative="1" as="geometry" />
        </mxCell>
        <mxCell id="dWB66sfnX-RvB3R23JIL-3" value="ys:serverAccount" style="edgeStyle=orthogonalEdgeStyle;rounded=0;orthogonalLoop=1;jettySize=auto;html=1;exitX=1;exitY=0.5;exitDx=0;exitDy=0;entryX=0;entryY=0.5;entryDx=0;entryDy=0;strokeColor=default;align=center;verticalAlign=middle;spacing=0;fontFamily=Helvetica;fontSize=13;fontColor=default;labelBackgroundColor=default;endArrow=classic;" edge="1" parent="1" source="B6bujYKnu-jf7jByS25X-1" target="dWB66sfnX-RvB3R23JIL-1">
          <mxGeometry x="0.4717" y="30" relative="1" as="geometry">
            <Array as="points">
              <mxPoint x="940" y="370" />
              <mxPoint x="940" y="295" />
            </Array>
            <mxPoint x="-30" y="30" as="offset" />
          </mxGeometry>
        </mxCell>
        <mxCell id="B6bujYKnu-jf7jByS25X-1" value="&lt;div style=&quot;font-size: 13px;&quot;&gt;&lt;u style=&quot;font-size: 13px;&quot;&gt;ex:netconf-server-1&lt;/u&gt;&lt;/div&gt;" style="rounded=0;whiteSpace=wrap;html=1;snapToPoint=1;points=[[0.1,0],[0.2,0],[0.3,0],[0.4,0],[0.5,0],[0.6,0],[0.7,0],[0.8,0],[0.9,0],[0,0.1],[0,0.3],[0,0.5],[0,0.7],[0,0.9],[0.1,1],[0.2,1],[0.3,1],[0.4,1],[0.5,1],[0.6,1],[0.7,1],[0.8,1],[0.9,1],[1,0.1],[1,0.3],[1,0.5],[1,0.7],[1,0.9]];align=center;spacingLeft=10;fontSize=13;spacing=0;" parent="1" vertex="1">
          <mxGeometry x="730" y="354.61" width="159.32" height="30" as="geometry" />
        </mxCell>
        <mxCell id="B6bujYKnu-jf7jByS25X-20" value="ys:capability" style="edgeStyle=orthogonalEdgeStyle;rounded=0;orthogonalLoop=1;jettySize=auto;html=1;exitX=0.5;exitY=0;exitDx=0;exitDy=0;entryX=0.5;entryY=1;entryDx=0;entryDy=0;fontSize=13;spacing=0;" parent="1" source="B6bujYKnu-jf7jByS25X-2" target="B6bujYKnu-jf7jByS25X-18" edge="1">
          <mxGeometry relative="1" as="geometry" />
        </mxCell>
        <mxCell id="B6bujYKnu-jf7jByS25X-2" value="ys:NetconfServer" style="rounded=0;whiteSpace=wrap;html=1;snapToPoint=1;points=[[0.1,0],[0.2,0],[0.3,0],[0.4,0],[0.5,0],[0.6,0],[0.7,0],[0.8,0],[0.9,0],[0,0.1],[0,0.3],[0,0.5],[0,0.7],[0,0.9],[0.1,1],[0.2,1],[0.3,1],[0.4,1],[0.5,1],[0.6,1],[0.7,1],[0.8,1],[0.9,1],[1,0.1],[1,0.3],[1,0.5],[1,0.7],[1,0.9]];fillColor=#d5e8d4;strokeColor=#82b366;fontSize=13;spacing=0;" parent="1" vertex="1">
          <mxGeometry x="730" y="324.61" width="159.32" height="30" as="geometry" />
        </mxCell>
        <mxCell id="B6bujYKnu-jf7jByS25X-3" value="&quot;192.168.1.1:830&quot;" style="rounded=0;whiteSpace=wrap;html=1;strokeWidth=1;fontStyle=0;fontSize=13;verticalAlign=middle;spacing=0;" parent="1" vertex="1">
          <mxGeometry x="1070" y="357.11" width="120" height="25" as="geometry" />
        </mxCell>
        <mxCell id="B6bujYKnu-jf7jByS25X-5" value="&quot;admin&quot;" style="rounded=0;whiteSpace=wrap;html=1;strokeWidth=1;fontStyle=0;fontSize=13;verticalAlign=middle;spacing=0;" parent="1" vertex="1">
          <mxGeometry x="1255" y="282.5" width="60" height="25" as="geometry" />
        </mxCell>
        <mxCell id="B6bujYKnu-jf7jByS25X-6" value="&quot;admin&quot;" style="rounded=0;whiteSpace=wrap;html=1;strokeWidth=1;fontStyle=0;fontSize=13;verticalAlign=middle;spacing=0;" parent="1" vertex="1">
          <mxGeometry x="1340" y="172.5" width="60" height="25" as="geometry" />
        </mxCell>
        <mxCell id="B6bujYKnu-jf7jByS25X-7" value="ys:username" style="rounded=0;orthogonalLoop=1;jettySize=auto;html=1;entryX=0;entryY=0.5;entryDx=0;entryDy=0;fontSize=13;exitX=1;exitY=0.5;exitDx=0;exitDy=0;spacing=0;" parent="1" source="dWB66sfnX-RvB3R23JIL-1" target="B6bujYKnu-jf7jByS25X-5" edge="1">
          <mxGeometry x="-0.1238" relative="1" as="geometry">
            <mxPoint x="954" y="440" as="sourcePoint" />
            <mxPoint x="1065" y="393" as="targetPoint" />
            <mxPoint as="offset" />
          </mxGeometry>
        </mxCell>
        <mxCell id="B6bujYKnu-jf7jByS25X-10" value="&quot;false&quot;^^xsd:boolean" style="rounded=0;whiteSpace=wrap;html=1;strokeWidth=1;fontStyle=0;fontSize=13;verticalAlign=middle;spacing=0;" parent="1" vertex="1">
          <mxGeometry x="1070" y="412.5" width="130" height="25" as="geometry" />
        </mxCell>
        <mxCell id="B6bujYKnu-jf7jByS25X-12" value="&lt;div style=&quot;font-size: 13px;&quot;&gt;&lt;u style=&quot;font-size: 13px;&quot;&gt;ex:nc-1/running&lt;/u&gt;&lt;/div&gt;" style="rounded=0;whiteSpace=wrap;html=1;snapToPoint=1;points=[[0.1,0],[0.2,0],[0.3,0],[0.4,0],[0.5,0],[0.6,0],[0.7,0],[0.8,0],[0.9,0],[0,0.1],[0,0.3],[0,0.5],[0,0.7],[0,0.9],[0.1,1],[0.2,1],[0.3,1],[0.4,1],[0.5,1],[0.6,1],[0.7,1],[0.8,1],[0.9,1],[1,0.1],[1,0.3],[1,0.5],[1,0.7],[1,0.9]];align=center;spacingLeft=10;fontSize=13;spacing=0;" parent="1" vertex="1">
          <mxGeometry x="430" y="410" width="199.32" height="30" as="geometry" />
        </mxCell>
        <mxCell id="B6bujYKnu-jf7jByS25X-13" value="ys:RunningDatastore" style="rounded=0;whiteSpace=wrap;html=1;snapToPoint=1;points=[[0.1,0],[0.2,0],[0.3,0],[0.4,0],[0.5,0],[0.6,0],[0.7,0],[0.8,0],[0.9,0],[0,0.1],[0,0.3],[0,0.5],[0,0.7],[0,0.9],[0.1,1],[0.2,1],[0.3,1],[0.4,1],[0.5,1],[0.6,1],[0.7,1],[0.8,1],[0.9,1],[1,0.1],[1,0.3],[1,0.5],[1,0.7],[1,0.9]];fillColor=#d5e8d4;strokeColor=#82b366;fontSize=13;spacing=0;" parent="1" vertex="1">
          <mxGeometry x="430" y="380" width="199.32" height="30" as="geometry" />
        </mxCell>
        <mxCell id="B6bujYKnu-jf7jByS25X-14" value="&lt;div style=&quot;font-size: 13px;&quot;&gt;&lt;u style=&quot;font-size: 13px;&quot;&gt;ex:nc-1/operational&lt;/u&gt;&lt;/div&gt;" style="rounded=0;whiteSpace=wrap;html=1;snapToPoint=1;points=[[0.1,0],[0.2,0],[0.3,0],[0.4,0],[0.5,0],[0.6,0],[0.7,0],[0.8,0],[0.9,0],[0,0.1],[0,0.3],[0,0.5],[0,0.7],[0,0.9],[0.1,1],[0.2,1],[0.3,1],[0.4,1],[0.5,1],[0.6,1],[0.7,1],[0.8,1],[0.9,1],[1,0.1],[1,0.3],[1,0.5],[1,0.7],[1,0.9]];align=center;spacingLeft=10;fontSize=13;spacing=0;" parent="1" vertex="1">
          <mxGeometry x="430" y="320" width="199.32" height="30" as="geometry" />
        </mxCell>
        <mxCell id="B6bujYKnu-jf7jByS25X-15" value="ys:OperationalDatastore" style="rounded=0;whiteSpace=wrap;html=1;snapToPoint=1;points=[[0.1,0],[0.2,0],[0.3,0],[0.4,0],[0.5,0],[0.6,0],[0.7,0],[0.8,0],[0.9,0],[0,0.1],[0,0.3],[0,0.5],[0,0.7],[0,0.9],[0.1,1],[0.2,1],[0.3,1],[0.4,1],[0.5,1],[0.6,1],[0.7,1],[0.8,1],[0.9,1],[1,0.1],[1,0.3],[1,0.5],[1,0.7],[1,0.9]];fillColor=#d5e8d4;strokeColor=#82b366;fontSize=13;spacing=0;" parent="1" vertex="1">
          <mxGeometry x="430" y="290" width="199.32" height="30" as="geometry" />
        </mxCell>
        <mxCell id="B6bujYKnu-jf7jByS25X-18" value="&lt;div style=&quot;font-size: 13px;&quot;&gt;&lt;u style=&quot;font-size: 13px;&quot;&gt;ys:XpathCapability&lt;/u&gt;&lt;/div&gt;" style="rounded=0;whiteSpace=wrap;html=1;snapToPoint=1;points=[[0.1,0],[0.2,0],[0.3,0],[0.4,0],[0.5,0],[0.6,0],[0.7,0],[0.8,0],[0.9,0],[0,0.1],[0,0.3],[0,0.5],[0,0.7],[0,0.9],[0.1,1],[0.2,1],[0.3,1],[0.4,1],[0.5,1],[0.6,1],[0.7,1],[0.8,1],[0.9,1],[1,0.1],[1,0.3],[1,0.5],[1,0.7],[1,0.9]];align=center;spacingLeft=10;fontSize=13;spacing=0;" parent="1" vertex="1">
          <mxGeometry x="710" y="230" width="199.32" height="30" as="geometry" />
        </mxCell>
        <mxCell id="B6bujYKnu-jf7jByS25X-19" value="ys:NetconfCapability" style="rounded=0;whiteSpace=wrap;html=1;snapToPoint=1;points=[[0.1,0],[0.2,0],[0.3,0],[0.4,0],[0.5,0],[0.6,0],[0.7,0],[0.8,0],[0.9,0],[0,0.1],[0,0.3],[0,0.5],[0,0.7],[0,0.9],[0.1,1],[0.2,1],[0.3,1],[0.4,1],[0.5,1],[0.6,1],[0.7,1],[0.8,1],[0.9,1],[1,0.1],[1,0.3],[1,0.5],[1,0.7],[1,0.9]];fillColor=#d5e8d4;strokeColor=#82b366;fontSize=13;spacing=0;" parent="1" vertex="1">
          <mxGeometry x="710" y="200" width="199.32" height="30" as="geometry" />
        </mxCell>
        <mxCell id="B6bujYKnu-jf7jByS25X-24" value="ys:sourceDatastore" style="edgeStyle=orthogonalEdgeStyle;rounded=0;orthogonalLoop=1;jettySize=auto;html=1;entryX=0;entryY=0.5;entryDx=0;entryDy=0;fontSize=13;" parent="1" source="B6bujYKnu-jf7jByS25X-21" target="B6bujYKnu-jf7jByS25X-14" edge="1">
          <mxGeometry relative="1" as="geometry">
            <Array as="points">
              <mxPoint x="400" y="505" />
              <mxPoint x="400" y="335" />
            </Array>
          </mxGeometry>
        </mxCell>
        <mxCell id="B6bujYKnu-jf7jByS25X-29" value="ys:filter" style="edgeStyle=orthogonalEdgeStyle;rounded=0;orthogonalLoop=1;jettySize=auto;html=1;exitX=0.5;exitY=1;exitDx=0;exitDy=0;entryX=0.5;entryY=0;entryDx=0;entryDy=0;fontSize=13;" parent="1" source="B6bujYKnu-jf7jByS25X-21" target="B6bujYKnu-jf7jByS25X-26" edge="1">
          <mxGeometry relative="1" as="geometry" />
        </mxCell>
        <mxCell id="B6bujYKnu-jf7jByS25X-21" value="&lt;div style=&quot;font-size: 13px;&quot;&gt;&lt;u style=&quot;font-size: 13px;&quot;&gt;ex:query-xpath&lt;/u&gt;&lt;/div&gt;" style="rounded=0;whiteSpace=wrap;html=1;snapToPoint=1;points=[[0.1,0],[0.2,0],[0.3,0],[0.4,0],[0.5,0],[0.6,0],[0.7,0],[0.8,0],[0.9,0],[0,0.1],[0,0.3],[0,0.5],[0,0.7],[0,0.9],[0.1,1],[0.2,1],[0.3,1],[0.4,1],[0.5,1],[0.6,1],[0.7,1],[0.8,1],[0.9,1],[1,0.1],[1,0.3],[1,0.5],[1,0.7],[1,0.9]];align=center;spacingLeft=0;fontSize=13;spacing=0;" parent="1" vertex="1">
          <mxGeometry x="739.66" y="490" width="140" height="30" as="geometry" />
        </mxCell>
        <mxCell id="B6bujYKnu-jf7jByS25X-23" value="ys:sourceServer" style="edgeStyle=orthogonalEdgeStyle;rounded=0;orthogonalLoop=1;jettySize=auto;html=1;entryX=0.5;entryY=1;entryDx=0;entryDy=0;fontSize=13;" parent="1" source="B6bujYKnu-jf7jByS25X-22" target="B6bujYKnu-jf7jByS25X-1" edge="1">
          <mxGeometry relative="1" as="geometry" />
        </mxCell>
        <mxCell id="B6bujYKnu-jf7jByS25X-22" value="ys:Query" style="rounded=0;whiteSpace=wrap;html=1;snapToPoint=1;points=[[0.1,0],[0.2,0],[0.3,0],[0.4,0],[0.5,0],[0.6,0],[0.7,0],[0.8,0],[0.9,0],[0,0.1],[0,0.3],[0,0.5],[0,0.7],[0,0.9],[0.1,1],[0.2,1],[0.3,1],[0.4,1],[0.5,1],[0.6,1],[0.7,1],[0.8,1],[0.9,1],[1,0.1],[1,0.3],[1,0.5],[1,0.7],[1,0.9]];fillColor=#d5e8d4;strokeColor=#82b366;fontSize=13;spacing=0;" parent="1" vertex="1">
          <mxGeometry x="739.66" y="460" width="140" height="30" as="geometry" />
        </mxCell>
        <mxCell id="B6bujYKnu-jf7jByS25X-30" value="ys:namespace" style="edgeStyle=orthogonalEdgeStyle;rounded=0;orthogonalLoop=1;jettySize=auto;html=1;entryX=0;entryY=0.5;entryDx=0;entryDy=0;fontSize=13;" parent="1" source="B6bujYKnu-jf7jByS25X-25" target="B6bujYKnu-jf7jByS25X-27" edge="1">
          <mxGeometry relative="1" as="geometry" />
        </mxCell>
        <mxCell id="B6bujYKnu-jf7jByS25X-35" value="ys:xpathValue" style="edgeStyle=orthogonalEdgeStyle;rounded=0;orthogonalLoop=1;jettySize=auto;html=1;entryX=0.5;entryY=0;entryDx=0;entryDy=0;fontSize=13;" parent="1" source="B6bujYKnu-jf7jByS25X-25" target="B6bujYKnu-jf7jByS25X-33" edge="1">
          <mxGeometry relative="1" as="geometry" />
        </mxCell>
        <mxCell id="B6bujYKnu-jf7jByS25X-25" value="&lt;div style=&quot;font-size: 13px;&quot;&gt;&lt;u style=&quot;font-size: 13px;&quot;&gt;ex:xpath-filter&lt;/u&gt;&lt;/div&gt;" style="rounded=0;whiteSpace=wrap;html=1;snapToPoint=1;points=[[0.1,0],[0.2,0],[0.3,0],[0.4,0],[0.5,0],[0.6,0],[0.7,0],[0.8,0],[0.9,0],[0,0.1],[0,0.3],[0,0.5],[0,0.7],[0,0.9],[0.1,1],[0.2,1],[0.3,1],[0.4,1],[0.5,1],[0.6,1],[0.7,1],[0.8,1],[0.9,1],[1,0.1],[1,0.3],[1,0.5],[1,0.7],[1,0.9]];align=center;spacingLeft=0;fontSize=13;spacing=0;" parent="1" vertex="1">
          <mxGeometry x="470" y="600" width="140" height="30" as="geometry" />
        </mxCell>
        <mxCell id="B6bujYKnu-jf7jByS25X-26" value="ys:XPathFilter" style="rounded=0;whiteSpace=wrap;html=1;snapToPoint=1;points=[[0.1,0],[0.2,0],[0.3,0],[0.4,0],[0.5,0],[0.6,0],[0.7,0],[0.8,0],[0.9,0],[0,0.1],[0,0.3],[0,0.5],[0,0.7],[0,0.9],[0.1,1],[0.2,1],[0.3,1],[0.4,1],[0.5,1],[0.6,1],[0.7,1],[0.8,1],[0.9,1],[1,0.1],[1,0.3],[1,0.5],[1,0.7],[1,0.9]];fillColor=#d5e8d4;strokeColor=#82b366;fontSize=13;spacing=0;" parent="1" vertex="1">
          <mxGeometry x="470" y="570" width="140" height="30" as="geometry" />
        </mxCell>
        <mxCell id="B6bujYKnu-jf7jByS25X-36" value="ys:namespacePrefix" style="edgeStyle=orthogonalEdgeStyle;rounded=0;orthogonalLoop=1;jettySize=auto;html=1;entryX=0;entryY=0.5;entryDx=0;entryDy=0;fontSize=13;" parent="1" source="B6bujYKnu-jf7jByS25X-27" target="B6bujYKnu-jf7jByS25X-32" edge="1">
          <mxGeometry x="0.0643" relative="1" as="geometry">
            <Array as="points">
              <mxPoint x="950" y="615" />
              <mxPoint x="950" y="662" />
            </Array>
            <mxPoint as="offset" />
          </mxGeometry>
        </mxCell>
        <mxCell id="B6bujYKnu-jf7jByS25X-37" value="ys:namespaceURL" style="edgeStyle=orthogonalEdgeStyle;rounded=0;orthogonalLoop=1;jettySize=auto;html=1;entryX=0;entryY=0.5;entryDx=0;entryDy=0;fontSize=13;exitX=1;exitY=0.5;exitDx=0;exitDy=0;" parent="1" source="B6bujYKnu-jf7jByS25X-27" target="B6bujYKnu-jf7jByS25X-31" edge="1">
          <mxGeometry x="0.0032" relative="1" as="geometry">
            <Array as="points">
              <mxPoint x="950" y="615" />
              <mxPoint x="950" y="538" />
              <mxPoint x="1010" y="538" />
            </Array>
            <mxPoint as="offset" />
          </mxGeometry>
        </mxCell>
        <mxCell id="B6bujYKnu-jf7jByS25X-27" value="&lt;div style=&quot;font-size: 13px;&quot;&gt;&lt;u style=&quot;font-size: 13px;&quot;&gt;ex:ns-yanglib&lt;/u&gt;&lt;/div&gt;" style="rounded=0;whiteSpace=wrap;html=1;snapToPoint=1;points=[[0.1,0],[0.2,0],[0.3,0],[0.4,0],[0.5,0],[0.6,0],[0.7,0],[0.8,0],[0.9,0],[0,0.1],[0,0.3],[0,0.5],[0,0.7],[0,0.9],[0.1,1],[0.2,1],[0.3,1],[0.4,1],[0.5,1],[0.6,1],[0.7,1],[0.8,1],[0.9,1],[1,0.1],[1,0.3],[1,0.5],[1,0.7],[1,0.9]];align=center;spacingLeft=0;fontSize=13;spacing=0;" parent="1" vertex="1">
          <mxGeometry x="730" y="600" width="140" height="30" as="geometry" />
        </mxCell>
        <mxCell id="B6bujYKnu-jf7jByS25X-28" value="ys:Namespace" style="rounded=0;whiteSpace=wrap;html=1;snapToPoint=1;points=[[0.1,0],[0.2,0],[0.3,0],[0.4,0],[0.5,0],[0.6,0],[0.7,0],[0.8,0],[0.9,0],[0,0.1],[0,0.3],[0,0.5],[0,0.7],[0,0.9],[0.1,1],[0.2,1],[0.3,1],[0.4,1],[0.5,1],[0.6,1],[0.7,1],[0.8,1],[0.9,1],[1,0.1],[1,0.3],[1,0.5],[1,0.7],[1,0.9]];fillColor=#d5e8d4;strokeColor=#82b366;fontSize=13;spacing=0;" parent="1" vertex="1">
          <mxGeometry x="730" y="570" width="140" height="30" as="geometry" />
        </mxCell>
        <mxCell id="B6bujYKnu-jf7jByS25X-31" value="&quot;urn:ietf:params:xml:ns:yang:ietf-yang-library&quot;" style="rounded=0;whiteSpace=wrap;html=1;strokeWidth=1;fontStyle=0;fontSize=13;verticalAlign=middle;spacing=0;" parent="1" vertex="1">
          <mxGeometry x="1010" y="525" width="280" height="25" as="geometry" />
        </mxCell>
        <mxCell id="B6bujYKnu-jf7jByS25X-32" value="&quot;yanglib&quot;" style="rounded=0;whiteSpace=wrap;html=1;strokeWidth=1;fontStyle=0;fontSize=13;verticalAlign=middle;spacing=0;" parent="1" vertex="1">
          <mxGeometry x="1030" y="650" width="80" height="25" as="geometry" />
        </mxCell>
        <mxCell id="B6bujYKnu-jf7jByS25X-33" value="&quot;/yanglib:modules-state/yanglib:module&quot;" style="rounded=0;whiteSpace=wrap;html=1;strokeWidth=1;fontStyle=0;fontSize=13;verticalAlign=middle;spacing=0;" parent="1" vertex="1">
          <mxGeometry x="400" y="690" width="280" height="25" as="geometry" />
        </mxCell>
        <mxCell id="dWB66sfnX-RvB3R23JIL-1" value="&lt;div style=&quot;font-size: 13px;&quot;&gt;&lt;u style=&quot;font-size: 13px;&quot;&gt;ex:nc-1/account&lt;/u&gt;&lt;/div&gt;" style="rounded=0;whiteSpace=wrap;html=1;snapToPoint=1;points=[[0.1,0],[0.2,0],[0.3,0],[0.4,0],[0.5,0],[0.6,0],[0.7,0],[0.8,0],[0.9,0],[0,0.1],[0,0.3],[0,0.5],[0,0.7],[0,0.9],[0.1,1],[0.2,1],[0.3,1],[0.4,1],[0.5,1],[0.6,1],[0.7,1],[0.8,1],[0.9,1],[1,0.1],[1,0.3],[1,0.5],[1,0.7],[1,0.9]];align=center;spacingLeft=10;fontSize=13;spacing=0;" vertex="1" parent="1">
          <mxGeometry x="985" y="280" width="135" height="30" as="geometry" />
        </mxCell>
        <mxCell id="dWB66sfnX-RvB3R23JIL-6" value="observable:hasFacet" style="edgeStyle=orthogonalEdgeStyle;rounded=0;orthogonalLoop=1;jettySize=auto;html=1;exitX=0.5;exitY=0;exitDx=0;exitDy=0;entryX=0.5;entryY=1;entryDx=0;entryDy=0;strokeColor=default;align=center;verticalAlign=middle;spacing=0;fontFamily=Helvetica;fontSize=13;fontColor=default;labelBackgroundColor=default;endArrow=classic;" edge="1" parent="1" source="dWB66sfnX-RvB3R23JIL-2" target="dWB66sfnX-RvB3R23JIL-4">
          <mxGeometry relative="1" as="geometry" />
        </mxCell>
        <mxCell id="dWB66sfnX-RvB3R23JIL-2" value="ys:ServerAccount" style="rounded=0;whiteSpace=wrap;html=1;snapToPoint=1;points=[[0.1,0],[0.2,0],[0.3,0],[0.4,0],[0.5,0],[0.6,0],[0.7,0],[0.8,0],[0.9,0],[0,0.1],[0,0.3],[0,0.5],[0,0.7],[0,0.9],[0.1,1],[0.2,1],[0.3,1],[0.4,1],[0.5,1],[0.6,1],[0.7,1],[0.8,1],[0.9,1],[1,0.1],[1,0.3],[1,0.5],[1,0.7],[1,0.9]];fillColor=#d5e8d4;strokeColor=#82b366;fontSize=13;spacing=0;" vertex="1" parent="1">
          <mxGeometry x="985" y="250" width="135" height="30" as="geometry" />
        </mxCell>
        <mxCell id="dWB66sfnX-RvB3R23JIL-4" value="&lt;div style=&quot;font-size: 13px;&quot;&gt;&lt;u style=&quot;font-size: 13px;&quot;&gt;ex:nc-1/account/authentication&lt;/u&gt;&lt;/div&gt;" style="rounded=0;whiteSpace=wrap;html=1;snapToPoint=1;points=[[0.1,0],[0.2,0],[0.3,0],[0.4,0],[0.5,0],[0.6,0],[0.7,0],[0.8,0],[0.9,0],[0,0.1],[0,0.3],[0,0.5],[0,0.7],[0,0.9],[0.1,1],[0.2,1],[0.3,1],[0.4,1],[0.5,1],[0.6,1],[0.7,1],[0.8,1],[0.9,1],[1,0.1],[1,0.3],[1,0.5],[1,0.7],[1,0.9]];align=center;spacingLeft=10;fontSize=13;spacing=0;" vertex="1" parent="1">
          <mxGeometry x="932.5" y="170" width="240" height="30" as="geometry" />
        </mxCell>
        <mxCell id="dWB66sfnX-RvB3R23JIL-5" value="observable:AccountAuthenticationFacet" style="rounded=0;whiteSpace=wrap;html=1;snapToPoint=1;points=[[0.1,0],[0.2,0],[0.3,0],[0.4,0],[0.5,0],[0.6,0],[0.7,0],[0.8,0],[0.9,0],[0,0.1],[0,0.3],[0,0.5],[0,0.7],[0,0.9],[0.1,1],[0.2,1],[0.3,1],[0.4,1],[0.5,1],[0.6,1],[0.7,1],[0.8,1],[0.9,1],[1,0.1],[1,0.3],[1,0.5],[1,0.7],[1,0.9]];fillColor=#f5f5f5;strokeColor=#666666;fontSize=13;spacing=0;fontColor=#333333;" vertex="1" parent="1">
          <mxGeometry x="932.5" y="140" width="240" height="30" as="geometry" />
        </mxCell>
        <mxCell id="dWB66sfnX-RvB3R23JIL-11" value="&quot;plain-text&quot;" style="rounded=0;whiteSpace=wrap;html=1;strokeWidth=1;fontStyle=0;fontSize=13;verticalAlign=middle;spacing=0;" vertex="1" parent="1">
          <mxGeometry x="1320" y="225" width="80" height="25" as="geometry" />
        </mxCell>
        <mxCell id="dWB66sfnX-RvB3R23JIL-12" value="observable:passwordType" style="rounded=0;orthogonalLoop=1;jettySize=auto;html=1;entryX=0;entryY=0.5;entryDx=0;entryDy=0;fontSize=13;spacing=0;exitX=1;exitY=0.5;exitDx=0;exitDy=0;edgeStyle=orthogonalEdgeStyle;" edge="1" parent="1" source="dWB66sfnX-RvB3R23JIL-4" target="dWB66sfnX-RvB3R23JIL-11">
          <mxGeometry x="0.2624" y="-36" relative="1" as="geometry">
            <mxPoint x="-36" y="-36" as="offset" />
            <mxPoint x="1183" y="195" as="sourcePoint" />
            <mxPoint x="1350" y="195" as="targetPoint" />
          </mxGeometry>
        </mxCell>
        <mxCell id="B6bujYKnu-jf7jByS25X-9" value="observable:password" style="rounded=0;orthogonalLoop=1;jettySize=auto;html=1;entryX=0;entryY=0.5;entryDx=0;entryDy=0;fontSize=13;spacing=0;exitX=1;exitY=0.5;exitDx=0;exitDy=0;" parent="1" source="dWB66sfnX-RvB3R23JIL-4" target="B6bujYKnu-jf7jByS25X-6" edge="1">
          <mxGeometry x="0.0021" relative="1" as="geometry">
            <mxPoint as="offset" />
          </mxGeometry>
        </mxCell>
      </root>
    </mxGraphModel>
  </diagram>
</mxfile>
